<svg width="670" height="403" viewBox="0 0 670 403" fill="none" xmlns="http://www.w3.org/2000/svg"><path d="M586.221 268.039L502.504 402.075L418.733 268.039H586.221Z" fill="#69AEE0"/><path d="M334.996 402.075L418.744 268.029L502.492 402.075H334.996Z" fill="#70B1E1"/><path d="M418.723 268.039L334.996 402.075L251.246 268.039H418.723Z" fill="#92CAEF"/><path d="M167.497 402.075L251.245 268.029L334.993 402.075H167.497Z" fill="#92CAEF"/><path d="M0 402.075L83.7487 268.039L167.497 402.085L0 402.075Z" fill="#7EBAE6"/><path d="M670 134.035L586.252 268.039L502.491 134.035H670Z" fill="#85C1EB"/><path d="M418.743 268.039L502.481 134.035L586.218 268.039H418.743Z" fill="#7EBAE6"/><path d="M502.492 134.035L418.744 268.039L334.996 134.035H502.492Z" fill="#7BB8E5"/><path d="M251.246 268.039L334.996 134.035L418.723 268.039H251.246Z" fill="#85C1EB"/><path d="M334.993 134.035L251.245 268.039L167.497 134.035H334.993Z" fill="#73B2E2"/><path d="M83.749 268.039L167.498 134.035L251.225 268.039H83.749Z" fill="#67A0D3"/><path d="M502.491 134.035L586.231 0L669.989 134.045L502.491 134.035Z" fill="#99D2F3"/><path d="M334.996 134.035L418.744 0L502.492 134.045L334.996 134.035Z" fill="#82BEE9"/><path d="M167.497 134.035L251.245 0L334.993 134.045L167.497 134.035Z" fill="#73B2E2"/><path d="M251.225 0L167.498 134.035L83.749 0H251.225Z" fill="#65A5DA"/></svg>