<svg width="32" height="32" viewBox="0 0 32 32" fill="none" xmlns="http://www.w3.org/2000/svg"><g clip-path="url(#clip0_434_2)"><path d="M27.9984 18.8018L24 25.2035L19.999 18.8018H27.9984Z" fill="#69AEE0"/><path d="M16 25.204L19.9999 18.8018L23.9998 25.204H16Z" fill="#70B1E1"/><path d="M19.9989 18.8018L16 25.2035L12 18.8018H19.9989Z" fill="#92CAEF"/><path d="M8 25.204L11.9999 18.8018L15.9998 25.204H8Z" fill="#92CAEF"/><path d="M0 25.2035L3.99994 18.8018L7.99987 25.204L0 25.2035Z" fill="#7EBAE6"/><path d="M32.0004 12.4014L28.0005 18.8016L24 12.4014H32.0004Z" fill="#85C1EB"/><path d="M20 18.8016L23.9994 12.4014L27.9988 18.8016H20Z" fill="#7EBAE6"/><path d="M23.9998 12.4014L19.9999 18.8016L16 12.4014H23.9998Z" fill="#7BB8E5"/><path d="M12 18.8016L16 12.4014L19.9989 18.8016H12Z" fill="#85C1EB"/><path d="M15.9998 12.4014L11.9999 18.8016L8 12.4014H15.9998Z" fill="#73B2E2"/><path d="M4 18.8016L7.99993 12.4014L11.9989 18.8016H4Z" fill="#67A0D3"/><path d="M24 12.4017L27.9995 6L31.9999 12.4022L24 12.4017Z" fill="#99D2F3"/><path d="M16 12.4017L19.9999 6L23.9998 12.4022L16 12.4017Z" fill="#82BEE9"/><path d="M8 12.4017L11.9999 6L15.9998 12.4022L8 12.4017Z" fill="#73B2E2"/><path d="M11.9989 6L7.99993 12.4017L4 6H11.9989Z" fill="#65A5DA"/></g><defs><clipPath id="clip0_434_2"><rect width="32" height="32" fill="white"/></clipPath></defs></svg>